<?xml version="1.0" encoding="UTF-8" standalone="no"?>
<!DOCTYPE svg PUBLIC "-//W3C//DTD SVG 1.1//EN" "http://www.w3.org/Graphics/SVG/1.1/DTD/svg11.dtd">
<svg width="100%" height="100%" viewBox="0 0 5639 3087" version="1.1" xmlns="http://www.w3.org/2000/svg" xmlns:xlink="http://www.w3.org/1999/xlink" xml:space="preserve" xmlns:serif="http://www.serif.com/" style="fill-rule:evenodd;clip-rule:evenodd;stroke-linejoin:round;stroke-miterlimit:2;">
    <g transform="matrix(1,0,0,1,-60.394,-857.062)">
        <g transform="matrix(1.0203,0,0,1.0203,9.91512,-286.022)">
            <g id="z" transform="matrix(0.996123,0.0879744,-0.0976771,1.10598,337.725,-831.394)">
                <path d="M4521.85,2790.38C4449.69,2591.87 4337.08,2418.12 4200.29,2259.46C4257.39,2195.9 4356.24,2162.13 4404.7,2174.68C4446.04,2185.4 4493.05,2208.69 4524.39,2248.61C4557.79,2267.33 4629.48,2300.38 4671.47,2259.62C4773.28,2160.82 4899.88,2017.58 5083.2,1607.96C5177.08,1499.3 5261.23,1480.77 5341.64,1496.83C5231.79,1779.52 5127.88,2065.24 5030.36,2354.24C5072.34,2322.94 5177.32,2310.41 5182.8,2340.46C5244.86,2680.78 5355.16,2984.38 5538.1,3267.65C5538.77,3266.28 5583.97,3300.36 5582.49,3304.41C5545.48,3405.49 5367.11,3497.2 5293.37,3460.23C5282.58,3450.81 5280.25,3441.03 5269.09,3433.1C5023.81,3258.91 4848.67,3242.64 4726.03,3420.26C4726.03,3420.26 4702.09,3540.54 4653.75,3712.11C4620.25,3830.97 4387.12,3819.25 4387.12,3819.25C4387.12,3819.25 4415.56,3748.68 4398.71,3738.13C4380.1,3726.47 4463.75,3484.66 4538.4,3236.15C4610.65,2995.59 4678.22,2757.21 4671.18,2756.76C4626.32,2780.35 4572.77,2794.22 4521.85,2790.38ZM4780.71,3216.8L4936.23,2660.96C4976.25,2824.76 5033.7,2983.74 5096.84,3134.58C4998.97,3134.33 4886.16,3163.57 4780.71,3216.8ZM4648.7,2408.69L4728.26,2569.21L4813.12,2311.48C4760.92,2353.82 4705.98,2386.93 4648.7,2408.69Z" style="fill:white;"/>
            </g>
            <g id="_0" serif:id="0" transform="matrix(1,0,0,1,2462.85,105.149)">
                <path d="M1632.26,3375.26C1507.84,3326.65 1283.88,3048.82 1178.35,2616.5C1052.3,2100.12 1199.04,1885.72 1291.47,1798.19C1443.65,1654.07 1631.75,1636.59 1713.28,1704.1C1776.18,1756.2 1825.85,1844.69 1856.3,1915.58C1909.67,2039.8 1987.94,2223.09 2034.07,2341.4C2064.59,2419.69 2131.8,2580.76 2175.7,2755.4C2189.99,2812.21 2067.14,2939.74 2051.48,2941.25C2021.68,2944.13 2064.12,3180.37 1926.42,3314.95C1855.54,3384.22 1673.64,3395.51 1665.2,3387.17C1658,3380.05 1632.26,3375.26 1632.26,3375.26ZM1613.61,2107.75C1579.59,2123.49 1556.31,2165.9 1536.2,2206.84C1536.2,2206.84 1635.14,2434.3 1676.53,2621.5C1728.23,2855.3 1744.06,3079.84 1744.06,3079.84C1436.82,2696.86 1338.67,2045.63 1438.25,1848.93C1453.74,1818.34 1572.82,1979.12 1613.61,2107.75Z" style="fill:white;"/>
            </g>
            <g transform="matrix(0.999038,0.043848,-0.043848,0.999038,180.196,-22.2106)">
                <path d="M2649.48,1623.29C2763.93,1745.01 2994.44,2304.25 3059.31,2495.5C3084.68,2356.33 3081.51,2149.76 3084.48,2007.76C3056.61,1921.77 3045.4,1841.05 3041.71,1762.71C3086.29,1642.41 3273.26,1576.63 3345.42,1631.15C3361.31,1698.26 3368.56,1778.35 3378.08,1869.72C3513.88,2412.83 3735.57,3138.86 4116.57,3656.48C4117.8,3732.62 3882.14,3844.31 3777.14,3709.04C3518.37,3375.65 3429.44,3107.1 3303.4,2765L3245.06,3029.76L3261.79,3137.16C3208.19,3346.18 3016.14,3402.17 3016.12,3374.42C2901.23,3274.94 2846.24,3219.02 2786.6,3154.43C2740.83,3104.88 2909.76,3056.38 2941.89,2999.3C2941.89,2999.3 2809.02,2408.92 2435.16,1728.48C2391.32,1648.7 2588.89,1558.85 2649.48,1623.29Z" style="fill:white;"/>
            </g>
            <g id="_01" serif:id="0" transform="matrix(1,0,0,1,760.885,117.25)">
                <path d="M1632.26,3375.26C1507.84,3326.65 1283.88,3048.82 1178.35,2616.5C1052.3,2100.12 1199.04,1885.72 1291.47,1798.19C1443.65,1654.07 1631.75,1636.59 1713.28,1704.1C1776.18,1756.2 1825.85,1844.69 1856.3,1915.58C1909.67,2039.8 1987.94,2223.09 2034.07,2341.4C2064.59,2419.69 2131.8,2580.76 2175.7,2755.4C2189.99,2812.21 2067.14,2939.74 2051.48,2941.25C2021.68,2944.13 2064.12,3180.37 1926.42,3314.95C1855.54,3384.22 1673.64,3395.51 1665.2,3387.17C1658,3380.05 1632.26,3375.26 1632.26,3375.26ZM1613.61,2107.75C1579.59,2123.49 1556.31,2165.9 1536.2,2206.84C1536.2,2206.84 1635.14,2434.3 1676.53,2621.5C1728.23,2855.3 1744.06,3079.84 1744.06,3079.84C1436.82,2696.86 1338.67,2045.63 1438.25,1848.93C1453.74,1818.34 1572.82,1979.12 1613.61,2107.75Z" style="fill:white;"/>
            </g>
            <g id="_02" serif:id="0" transform="matrix(1,0,0,1,-40.2438,105.149)">
                <path d="M1632.26,3375.26C1507.84,3326.65 1283.88,3048.82 1178.35,2616.5C1052.3,2100.12 1199.04,1885.72 1291.47,1798.19C1443.65,1654.07 1631.75,1636.59 1713.28,1704.1C1776.18,1756.2 1825.85,1844.69 1856.3,1915.58C1909.67,2039.8 1966.56,2234.79 1981.9,2356.43C1996.1,2469.04 2089.22,2937.61 2051.48,2941.25C2021.68,2944.13 2064.12,3180.37 1926.42,3314.95C1855.54,3384.22 1673.64,3395.51 1665.2,3387.17C1658,3380.05 1632.26,3375.26 1632.26,3375.26ZM1613.61,2107.75C1579.59,2123.49 1556.31,2165.9 1536.2,2206.84C1536.2,2206.84 1635.14,2434.3 1676.53,2621.5C1728.23,2855.3 1744.06,3079.84 1744.06,3079.84C1436.82,2696.86 1338.67,2045.63 1438.25,1848.93C1453.74,1818.34 1572.82,1979.12 1613.61,2107.75Z" style="fill:white;"/>
            </g>
            <g id="M" transform="matrix(1.03386,0.0432543,-0.0432543,1.03386,33.211,-152.896)">
                <path d="M287.354,3690.86C331.054,3300.01 231.822,2800.31 153.952,2478.64C137.946,2445.83 122.562,2418.07 115.744,2382.99C101.441,2309.41 388.453,2148.9 406.129,2248.95C420.879,2332.44 547.769,2567.82 633.634,2675.11C685.773,2400.74 721.585,2172.21 771.577,1873.73C775.724,1848.98 759.689,1463.7 760.135,1354.04C817.789,1233.86 903.358,1165.96 1051.71,1199.12C1034.4,1620.32 1074.16,2223.92 1160.71,2643.58C1248.71,3070.29 1582.6,3922.78 1582.6,3922.78C1590.69,3964.3 1571.56,3961.54 1566.68,3986.35C1545.61,4093.6 1350.43,4121.54 1329.65,4084.15C1328.93,4082.85 1292.84,4048.99 1284.44,4023.25C1137.61,3573.41 990.93,3134.64 885.5,2677C885.5,2677 860.834,2840.13 863.801,2904.63C868.244,3001.22 624.913,3116.23 570.74,3036.37C534.505,2982.95 495.777,2896.99 495.777,2896.99C522.732,3073.88 526.252,3527.56 526.479,3587.08C526.939,3707.72 277.699,3777.21 287.354,3690.86Z" style="fill:white;"/>
            </g>
        </g>
    </g>
</svg>
